<?xml version="1.0" encoding="UTF-8" standalone="no"?>
<!DOCTYPE svg PUBLIC "-//W3C//DTD SVG 1.1//EN" "http://www.w3.org/Graphics/SVG/1.1/DTD/svg11.dtd">
<svg version="1.1" xmlns="http://www.w3.org/2000/svg" xmlns:xlink="http://www.w3.org/1999/xlink" preserveAspectRatio="xMidYMid meet" viewBox="0 0 640 640" width="720" height="720"><defs><path d="M259.11 335.47L190.47 441L612.62 431.41L376.45 348.01L444.35 242.47L17.03 244.69L259.11 335.47Z" id="e3hM5jevW7"></path><path d="M357.89 353.29L559.44 427.73L290.5 383.55L357.89 353.29Z" id="afnYL4HmI"></path><path d="M290.5 383.55L353.3 288.71L422.04 257.12L357.75 353.29L290.5 383.55Z" id="cmvFlI6Y9"></path><path d="" id="b398Y2CPgO"></path><path d="M353.29 288.72L75.02 252.58L422.04 257.12L353.29 288.72Z" id="idvpKP7pW"></path><path d="M352.99 288.72L279.22 328.57L75.02 251.67L352.99 288.72Z" id="b2JSMulMnb"></path><path d="M214 427.73L290.5 383.55L352.99 288.72L279.13 328.57L214 427.73Z" id="b1c4NL3EDn"></path><path d="M559.44 427.73L290.5 383.55L214 427.73L559.44 427.73Z" id="bMxVnmkKF"></path></defs><g><g><g><use xlink:href="#e3hM5jevW7" opacity="1" fill="#000000" fill-opacity="1"></use><g><use xlink:href="#e3hM5jevW7" opacity="1" fill-opacity="0" stroke="#0e360e" stroke-width="1" stroke-opacity="1"></use></g></g><g><use xlink:href="#afnYL4HmI" opacity="1" fill="#00f0ff" fill-opacity="1"></use><g><use xlink:href="#afnYL4HmI" opacity="1" fill-opacity="0" stroke="#0e360e" stroke-width="1" stroke-opacity="1"></use></g></g><g><use xlink:href="#cmvFlI6Y9" opacity="1" fill="#0000ff" fill-opacity="1"></use><g><use xlink:href="#cmvFlI6Y9" opacity="1" fill-opacity="0" stroke="#0e360e" stroke-width="1" stroke-opacity="1"></use></g></g><g><g><use xlink:href="#b398Y2CPgO" opacity="1" fill-opacity="0" stroke="#0e360e" stroke-width="1" stroke-opacity="1"></use></g></g><g><use xlink:href="#idvpKP7pW" opacity="1" fill="#00f0ff" fill-opacity="1"></use><g><use xlink:href="#idvpKP7pW" opacity="1" fill-opacity="0" stroke="#0e360e" stroke-width="1" stroke-opacity="1"></use></g></g><g><use xlink:href="#b2JSMulMnb" opacity="1" fill="#0000ff" fill-opacity="1"></use><g><use xlink:href="#b2JSMulMnb" opacity="1" fill-opacity="0" stroke="#000000" stroke-width="1" stroke-opacity="1"></use></g></g><g><use xlink:href="#b1c4NL3EDn" opacity="1" fill="#00f0ff" fill-opacity="1"></use><g><use xlink:href="#b1c4NL3EDn" opacity="1" fill-opacity="0" stroke="#0e360e" stroke-width="1" stroke-opacity="1"></use></g></g><g><use xlink:href="#bMxVnmkKF" opacity="1" fill="#0000ff" fill-opacity="1"></use><g><use xlink:href="#bMxVnmkKF" opacity="1" fill-opacity="0" stroke="#0e360e" stroke-width="1" stroke-opacity="1"></use></g></g></g></g></svg>